<svg width="280" height="280" viewBox="0 0 280 280" fill="none" xmlns="http://www.w3.org/2000/svg">
<g clip-path="url(#clip0_3_9)">
<rect width="280" height="280" rx="61" fill="url(#paint0_linear_3_9)"/>
<path d="M253.444 229.447C256.395 231.944 257.071 236.508 254.337 239.241C203.757 289.817 139.06 148.02 49.8684 253.444C47.3714 256.395 42.808 257.071 40.0744 254.337C-10.5011 203.757 131.296 139.06 25.8722 49.8684C22.9207 47.3714 22.2445 42.808 24.9783 40.0744C75.5588 -10.5011 140.256 131.296 229.447 25.8722C231.944 22.9207 236.508 22.2445 239.241 24.9783C289.817 75.5588 148.02 140.256 253.444 229.447Z" fill="white"/>
<path d="M188.333 188.333L154.028 154.028M161.25 131.458C161.25 139.36 158.111 146.937 152.524 152.524C146.937 158.111 139.36 161.25 131.458 161.25C123.557 161.25 115.979 158.111 110.392 152.524C104.805 146.937 101.667 139.36 101.667 131.458C101.667 123.557 104.805 115.979 110.392 110.392C115.979 104.805 123.557 101.667 131.458 101.667C139.36 101.667 146.937 104.805 152.524 110.392C158.111 115.979 161.25 123.557 161.25 131.458Z" stroke="url(#paint1_linear_3_9)" stroke-width="16" stroke-linecap="round"/>
</g>
<defs>
<linearGradient id="paint0_linear_3_9" x1="287" y1="-21" x2="13.5" y2="272.5" gradientUnits="userSpaceOnUse">
<stop stop-color="#3CCBFF"/>
<stop offset="1" stop-color="#007AFF"/>
</linearGradient>
<linearGradient id="paint1_linear_3_9" x1="97" y1="191" x2="188" y2="85.5" gradientUnits="userSpaceOnUse">
<stop stop-color="#3BCBFF"/>
<stop offset="1" stop-color="#007AFF"/>
</linearGradient>
<clipPath id="clip0_3_9">
<rect width="280" height="280" rx="61" fill="white"/>
</clipPath>
</defs>
</svg>